<?xml version="1.0" encoding="UTF-8"?>
<svg width="800" height="600" viewBox="0 0 800 600" fill="none" xmlns="http://www.w3.org/2000/svg">
  <!-- Background -->
  <rect width="800" height="600" fill="#F5F7FA"/>
  
  <!-- Header -->
  <rect width="800" height="60" fill="#2D9B9B"/>
  <circle cx="40" cy="30" r="15" fill="#FFFFFF"/>
  <rect x="70" y="20" width="120" height="20" rx="4" fill="#FFFFFF"/>
  
  <!-- Sidebar -->
  <rect width="200" height="540" y="60" fill="#FFFFFF"/>
  <rect x="20" y="80" width="160" height="40" rx="4" fill="#E8F4F4"/>
  <rect x="20" y="130" width="160" height="40" rx="4" fill="#F5F7FA"/>
  <rect x="20" y="180" width="160" height="40" rx="4" fill="#F5F7FA"/>
  <rect x="20" y="230" width="160" height="40" rx="4" fill="#F5F7FA"/>
  
  <!-- Main Content -->
  <rect x="220" y="80" width="560" height="100" rx="8" fill="#FFFFFF"/>
  <rect x="220" y="200" width="270" height="300" rx="8" fill="#FFFFFF"/>
  <rect x="510" y="200" width="270" height="300" rx="8" fill="#FFFFFF"/>
  
  <!-- Map Preview -->
  <rect x="240" y="220" width="230" height="260" rx="4" fill="#E8F4F4"/>
  <circle cx="300" cy="300" r="50" fill="#2D9B9B" fill-opacity="0.2"/>
  <circle cx="300" cy="300" r="5" fill="#2D9B9B"/>
  
  <!-- Stats -->
  <rect x="530" y="220" width="230" height="60" rx="4" fill="#E8F4F4"/>
  <rect x="530" y="290" width="230" height="60" rx="4" fill="#E8F4F4"/>
  <rect x="530" y="360" width="230" height="60" rx="4" fill="#E8F4F4"/>
  <rect x="530" y="430" width="230" height="60" rx="4" fill="#E8F4F4"/>
</svg> 