<?xml version="1.0" encoding="UTF-8"?>
<svg width="30px" height="12px" viewBox="0 0 30 12" version="1.1" xmlns="http://www.w3.org/2000/svg" xmlns:xlink="http://www.w3.org/1999/xlink">
    <title>dubai-logo-short@0.0x</title>
    <g id="All-Plates" stroke="none" stroke-width="1" fill="none" fill-rule="evenodd">
        <g id="Plates" transform="translate(-494.000000, -224.000000)" fill="#000000">
            <g id="Normal---Short-Number-Plate" transform="translate(488.000000, 215.000000)">
                <g id="Dubai-Logo-Black" transform="translate(6.000000, 9.000000)">
                    <path d="M9.20296395,10.1872249 L9.26420507,10.1906336 L9.26420507,10.1906336 L9.32358002,10.2003468 L9.41469691,10.2282841 C9.61925611,10.3105219 9.76349129,10.5082035 9.76349129,10.7391639 L9.76349129,10.7391639 L9.75615446,10.8286937 C9.71271066,11.0909507 9.48156177,11.2911028 9.20296395,11.2911028 L9.20296395,11.2911028 L9.11464657,11.2842766 C8.91331801,11.2528277 8.74804421,11.1155772 8.67841057,10.9323015 L8.67841057,10.9323015 L8.65887645,10.8706196 C8.648205,10.8285202 8.64239444,10.7845437 8.64239444,10.7391639 L8.64239444,10.7391639 L8.64239444,10.1872249 L9.20296395,10.1872249 Z M10.6646536,10.1872249 L10.7259053,10.1906336 L10.7259053,10.1906336 L10.7852275,10.2003468 L10.8763462,10.2282841 C11.0809135,10.3105219 11.2251809,10.5082035 11.2251809,10.7391639 L11.2251809,10.7391639 L11.2178441,10.8286937 C11.1744003,11.0909507 10.9432514,11.2911028 10.6646536,11.2911028 L10.6646536,11.2911028 L10.5763362,11.2842766 C10.3750076,11.2528277 10.2097338,11.1155772 10.1401002,10.9323015 L10.1401002,10.9323015 L10.1205848,10.8706196 C10.1099134,10.8285202 10.1040841,10.7845437 10.1040841,10.7391639 L10.1040841,10.7391639 L10.1040841,10.1872249 L10.6646536,10.1872249 Z M16.9583242,0.0455314705 L17.2002386,0.0635048551 C19.8675162,0.330230644 20.0276639,2.69863657 20.0372257,2.96096955 L20.0378296,2.98454481 L20.0179992,3.22599968 C19.7345622,5.80662748 17.3415965,5.92355815 17.3415965,5.92355815 L12.956,5.92310282 L12.9564686,8.22786631 C12.5886486,9.75123747 11.3445321,9.83756787 11.2455912,9.8420369 L11.2393343,9.8422672 L11.097,9.83810282 L11.0974375,9.84228361 L8.6991599,9.84228361 C8.57375356,9.82508179 7.15821405,9.60136561 6.96781322,8.18646679 L6.96781322,8.18646679 L6.96781322,4.00563185 L8.21665345,4.00563185 C8.30999848,4.02482423 8.94133954,4.17762958 8.9546045,4.84727722 L8.9546045,4.84727722 L8.95496459,7.09127742 C8.95953566,7.1763264 9.02021848,7.85793037 9.79187402,7.89671935 L9.79187402,7.89671935 L10.969,7.89610282 L10.9697195,4.86107979 C10.9574386,4.22732322 11.5740084,4.04952926 11.7386454,4.01338432 L11.7786063,4.00561544 L12.8713372,4.00563185 L16.9583242,3.93661898 L17.1211525,3.92551639 C18.0409389,3.81992651 17.951762,3.0397387 17.951762,3.0397387 L17.951762,3.0397387 L17.9485058,2.88510972 C17.8760185,2.10502123 16.9583242,2.02558166 16.9583242,2.02558166 L16.9583242,2.02558166 L16.9583242,0.0455314705 Z M22.9706557,6.37199828 L22.9706557,9.08802173 L22.9634571,9.12294945 C22.9297853,9.26707557 22.7625213,9.8091454 22.1475986,9.83309829 L22.1475986,9.83309829 L20.9555239,9.83309829 L20.9555239,6.37199828 L22.9706557,6.37199828 Z M26.9630476,5.37170122 L26.9630476,9.83309829 L25.7332276,9.83309829 C25.6413094,9.8192795 25.0167176,9.70308783 24.9195331,9.04201315 L24.9195331,9.04201315 L24.9195331,6.37199828 L24.9574892,6.37199828 C24.9574892,6.37199828 26.3671368,6.44794115 26.9630476,5.37170122 L26.9630476,5.37170122 Z M30,0.082354737 L30,9.13398931 L29.9502025,9.26469679 C29.6985929,9.83309829 29.1958366,9.83309829 29.1958366,9.83309829 L27.9564854,9.83309829 L27.9469964,0.882625192 L27.9833864,0.74101283 C28.1801342,0.122397602 28.7322661,0.082354737 28.7322661,0.082354737 L28.7322661,0.082354737 L30,0.082354737 Z M4.27626141,0.114544341 L4.346,0.132102817 L4.38979234,0.132873962 L4.389,0.143102817 L4.45968335,0.161459229 C5.81180722,0.547589831 5.935489,1.52344383 5.94245921,1.80411102 L5.94236098,1.86071386 C5.94193305,1.87376163 5.9413536,1.88070794 5.9413536,1.88070794 L5.9413536,8.24621234 L5.8936302,8.41896243 C5.57580227,9.42133832 4.7337506,9.71884781 4.38889005,9.80017134 L4.38979234,9.810053 L4.34541536,9.80988798 C4.27800559,9.82410311 4.23838965,9.82838262 4.23838965,9.82838262 L4.23838965,9.82838262 L3.14099428,9.82838262 L3.246,9.80910282 L1.56763491e-13,9.810053 L-4.61852778e-14,0.114544341 L4.27626141,0.114544341 Z M19.4844296,5.30268835 C19.5603362,5.39427545 20.6230298,6.7298469 19.4844296,8.50381118 L19.4844296,8.50381118 L19.4777751,8.51344754 C19.3983316,8.62704391 18.6149617,9.70792897 17.526021,9.77327074 L17.526021,9.77327074 L14.6877899,9.77327074 L14.6767515,9.77023093 C14.59064,9.74551049 14.0273894,9.56523221 13.9357108,9.05575012 L13.9357108,9.05575012 L13.9357108,6.3651093 L15.9792675,6.3651093 L15.9792675,7.11022687 L15.9827391,7.12041831 C16.0154552,7.2133065 16.2837852,7.90954052 16.9725788,7.89671935 L16.9725788,7.89671935 C17.0816305,7.89952876 18.0362066,7.89780924 18.0227821,6.92393722 L18.0227821,6.92393722 L18.0225369,6.91146081 C18.0200847,6.83060008 17.9931112,6.38016591 17.6964018,6.25476252 C17.6964018,6.25476252 18.9451576,6.17193067 19.4844296,5.30268835 L19.4844296,5.30268835 Z M3.06247356,2.10046027 L2.99836442,2.10099126 L2.99836442,2.10099126 L2.98959159,2.10148351 L1.944,2.10110282 L1.94419609,7.97024287 L3.14270854,7.97035996 C3.20941534,7.97064064 3.77278408,7.9508415 3.97426122,7.21077436 L3.9734982,2.98454481 L3.96472537,2.83445062 C3.88442024,2.17676239 3.27504598,2.10522656 3.06247356,2.10046027 Z M16.9718619,6.37199828 L17.0330925,6.37542227 L17.0330925,6.37542227 L17.0923936,6.38512016 L17.1835383,6.41306918 C17.388154,6.49532663 17.5323892,6.69297682 17.5323892,6.92393722 L17.5323892,6.92393722 L17.5250524,7.01345709 C17.4816086,7.27569086 17.2504597,7.47587616 16.9718619,7.47587616 L16.9718619,7.47587616 L16.8835341,7.46905173 C16.6821929,7.43761064 16.516979,7.30039156 16.4473085,7.11711585 L16.4473085,7.11711585 L16.427726,7.05540506 C16.417042,7.01329356 16.4112502,6.96931705 16.4112502,6.92393722 L16.4112502,6.92393722 L16.4112502,6.37199828 L16.9718619,6.37199828 Z M25.2601849,0.0455273699 L25.2889952,0.0496264376 C25.4946089,0.082067582 26.7376825,0.332226707 26.9630645,1.66452092 L26.9630645,4.31378682 C26.9630645,4.31378682 26.8118305,5.69355215 25.2980145,5.92359505 L20.946077,5.92355815 L20.946077,4.79212433 L20.9492822,4.79807018 L20.9546933,4.76423091 C20.9881849,4.58148978 21.1479417,4.06969941 21.8921962,4.00563185 L21.8921962,4.00563185 L24.1684441,4.00515305 C24.2433352,3.99794088 25.0284289,3.89375808 24.9753707,2.69865192 C24.9296637,2.48273146 24.7692346,2.07400354 24.2195128,2.02557756 L23.3869667,2.02557756 L23.3869667,0.891847411 C23.3869667,0.891847411 23.4626259,0.266302945 24.2384909,0.0455273699 L25.2601849,0.0455273699 Z M8.9546045,0.114544341 L8.9546045,3.93661898 C8.92582434,3.88774938 8.7523582,3.62845307 8.24503618,3.57785867 L8.24503618,3.57785867 L6.96781322,3.59167764 L6.96781322,0.887217849 C6.98207291,0.799646271 7.10219752,0.204675231 7.79091246,0.114544341 L7.79091246,0.114544341 L8.9546045,0.114544341 Z M12.1830665,0.114544341 L12.3221209,0.141213207 C12.9319922,0.298255535 13.0061658,0.887217849 13.0061658,0.887217849 L13.0061658,0.887217849 L13.0061658,3.59167764 L11.728985,3.57785867 L11.5987623,3.59651216 C11.150606,3.68153886 11.0194167,3.93661898 11.0194167,3.93661898 L11.0194167,3.93661898 L11.0194167,0.114544341 L12.1830665,0.114544341 Z M23.3042174,0.0417948027 C23.357178,0.0430403587 23.3869498,0.0455314705 23.3869498,0.0455314705 L23.3869498,0.0455314705 L23.3007926,0.113861266 C23.0066797,0.385368428 22.9470386,0.866550893 22.9470386,0.866550893 L22.9470386,0.866550893 L22.9754213,3.53648375 L21.9395148,3.53648375 L21.7832522,3.5350788 C21.2871404,3.55616817 21.03651,3.82095593 20.9667474,3.90863271 L20.946077,3.93661898 L20.946077,1.79098711 C21.1973464,0.168426047 22.7593667,0.0410618313 23.243771,0.0411028272 Z M16.5467957,0.0455314705 L16.5467957,2.14285843 L16.5367205,2.14643579 C16.464913,2.17313813 16.0324412,2.35443161 15.9933956,2.86033805 L15.9933956,2.86033805 L15.9792675,3.53648375 L13.9498811,3.53648375 L13.9498811,0.0455314705 L16.5467957,0.0455314705 Z"></path>
                </g>
            </g>
        </g>
    </g>
</svg>